<svg width="24" height="25" viewBox="0 0 24 25" fill="none" xmlns="http://www.w3.org/2000/svg">
<path d="M15.5 23.9578V14.2911C15.5 13.9706 15.3727 13.6633 15.1461 13.4367C14.9195 13.2101 14.6121 13.0828 14.2917 13.0828H9.45833C9.13786 13.0828 8.83052 13.2101 8.60391 13.4367C8.37731 13.6633 8.25 13.9706 8.25 14.2911V23.9578" stroke="#212121" stroke-width="2" stroke-linecap="round" stroke-linejoin="round"/>
<path d="M1 10.666C0.999916 10.3145 1.07653 9.96717 1.22449 9.64828C1.37246 9.32939 1.58821 9.04663 1.85671 8.8197L10.315 1.57091C10.7512 1.20226 11.3039 1 11.875 1C12.4461 1 12.9988 1.20226 13.435 1.57091L21.8933 8.8197C22.1618 9.04663 22.3775 9.32939 22.5255 9.64828C22.6735 9.96717 22.7501 10.3145 22.75 10.666V21.541C22.75 22.182 22.4954 22.7967 22.0422 23.2499C21.589 23.7031 20.9743 23.9577 20.3333 23.9577H3.41667C2.77573 23.9577 2.16104 23.7031 1.70783 23.2499C1.25461 22.7967 1 22.182 1 21.541V10.666Z" stroke="#212121" stroke-width="2" stroke-linecap="round" stroke-linejoin="round"/>
</svg>
