<svg width="25" height="25" viewBox="0 0 25 25" fill="none" xmlns="http://www.w3.org/2000/svg">
<rect x="0.75" y="0.75" width="23.5" height="23.5" rx="7.25" fill="white" fill-opacity="0.12"/>
<rect x="0.75" y="0.75" width="23.5" height="23.5" rx="7.25" stroke="#212121" stroke-width="1.5"/>
<path d="M4.44336 12.9492C4.44336 12.7083 4.52799 12.5033 4.69727 12.334C4.87305 12.1582 5.07812 12.0703 5.3125 12.0703H11.6309V5.76172C11.6309 5.52734 11.7155 5.32552 11.8848 5.15625C12.054 4.98047 12.2591 4.89258 12.5 4.89258C12.7409 4.89258 12.946 4.98047 13.1152 5.15625C13.291 5.32552 13.3789 5.52734 13.3789 5.76172V12.0703H19.6875C19.9219 12.0703 20.1237 12.1582 20.293 12.334C20.4688 12.5033 20.5566 12.7083 20.5566 12.9492C20.5566 13.1901 20.4688 13.3952 20.293 13.5645C20.1237 13.7337 19.9219 13.8184 19.6875 13.8184H13.3789V20.1367C13.3789 20.3711 13.291 20.5729 13.1152 20.7422C12.946 20.918 12.7409 21.0059 12.5 21.0059C12.2591 21.0059 12.054 20.918 11.8848 20.7422C11.7155 20.5729 11.6309 20.3711 11.6309 20.1367V13.8184H5.3125C5.07812 13.8184 4.87305 13.7337 4.69727 13.5645C4.52799 13.3952 4.44336 13.1901 4.44336 12.9492Z" fill="#212121"/>
</svg>
